<?xml version="1.0" encoding="utf-8"?>
<!-- Generator: Adobe Illustrator 16.0.0, SVG Export Plug-In . SVG Version: 6.00 Build 0)  -->
<!DOCTYPE svg PUBLIC "-//W3C//DTD SVG 1.1//EN" "http://www.w3.org/Graphics/SVG/1.1/DTD/svg11.dtd">
<svg version="1.1" id="Capa_1" xmlns="http://www.w3.org/2000/svg" xmlns:xlink="http://www.w3.org/1999/xlink" x="0px" y="0px"
	 width="31px" height="30px" viewBox="0 0 31 30" enable-background="new 0 0 31 30" xml:space="preserve">
<g>
	<circle fill="#EBC13C" cx="15.5" cy="15" r="13.833"/>
	<polygon fill="#C9593D" points="15.5,3.088 19.02,10.221 26.893,11.365 21.196,16.918 22.541,24.758 15.5,21.055 8.459,24.758 
		9.804,16.918 4.107,11.365 11.979,10.221 	"/>
	<path fill="none" d="M9.804,16.918l-0.035-0.035c0.009,0.029,0.017,0.059,0.026,0.086L9.804,16.918z"/>
	<path fill="#C9593D" d="M4.107,11.365l0.086,0.084c0.012-0.035,0.027-0.068,0.039-0.104L4.107,11.365z"/>
	<path fill="#C9593D" d="M8.459,24.758l0.744-0.393c-0.21-0.115-0.412-0.242-0.613-0.371L8.459,24.758z"/>
	<path fill="#C9593D" d="M22.541,24.758l-1.345-7.84l5.696-5.553l-7.873-1.145L15.5,3.088l-3.521,7.133l-2.807,0.408
		c-0.06,0.553-0.098,1.113-0.098,1.682c0,1.592,0.248,3.127,0.694,4.572l0.035,0.035l-0.009,0.051
		c0.643,2.041,1.691,3.898,3.059,5.479l2.646-1.393L22.541,24.758z"/>
	<path fill="#F1D244" d="M9.769,16.883l-5.575-5.434c-0.369,1.088-0.57,2.252-0.57,3.465c0,3.814,1.982,7.158,4.966,9.08
		l1.205-7.025C9.786,16.941,9.777,16.912,9.769,16.883z"/>
	<path fill="#F1D244" d="M14.422,25.713c0.697,0,1.376-0.072,2.036-0.197c-1.354-0.834-2.568-1.873-3.604-3.068l-3.651,1.918
		C10.75,25.223,12.528,25.713,14.422,25.713z"/>
	<path fill="#F1D244" d="M11.107,4.641c-3.21,1.035-5.761,3.531-6.874,6.705l4.939-0.717C9.407,8.469,10.079,6.441,11.107,4.641z"/>
	<path fill="#D78B56" d="M8.59,23.994c0.201,0.129,0.403,0.256,0.613,0.371l3.651-1.918c-1.368-1.58-2.417-3.438-3.059-5.479
		L8.59,23.994z"/>
	<path fill="#D78B56" d="M9.074,12.311c0-0.568,0.038-1.129,0.098-1.682l-4.939,0.717c-0.012,0.035-0.027,0.068-0.039,0.104
		l5.575,5.434C9.322,15.438,9.074,13.902,9.074,12.311z"/>
</g>
</svg>
